# xmcd CD database file generated by Grip 3.2.0
# 
# Track frame offsets:
#       150
#       18905
#       39477
#       56687
#       79048
#       99208
#       115796
#       132946
#       154726
#       174203
#       199123
# 
# Disc length: 2985 seconds
# 
# Revision: 5
# Processed by: cddbd v1.5.1PL0 Copyright (c) Steve Scherf et al.
# Submitted via: Grip 3.2.0
# 
DISCID=7d0ba70b
DTITLE=U2 - All That You Can't Leave Behind
DYEAR=2000
DGENRE=Rock
TTITLE0=Beautiful day
TTITLE1=Stuck In A Moment You Can't Get Out Of
TTITLE2=Elevation
TTITLE3=Walk On
TTITLE4=Kite
TTITLE5=In A Little While
TTITLE6=Wild honey
TTITLE7=Peace On Earth
TTITLE8=When I Look At The World
TTITLE9=New York
TTITLE10=Grace
EXTD=\nYEAR: 2000  ID3G:  17
EXTT0=
EXTT1=
EXTT2=
EXTT3=
EXTT4=
EXTT5=
EXTT6=
EXTT7=
EXTT8=
EXTT9=
EXTT10=
PLAYORDER=
